# xmcd
#
# Track frame offsets: 
#        150
#        11623
#        21457
#        35292
#        45056
#        58216
#        71473
#        82587
#        95725
#        104444
#        113549
#        131331
#        140970
#        149346
#        162481
#        172084
#
# Disc length: 2450 seconds
#
# Revision: 0
# Processed by: cddbd v1.5.2PL0 Copyright (c) Steve Scherf et al.
# Submitted via: ExactAudioCopy v0.99pb5
#
DISCID=d8099010
DTITLE=Roy Clark - Bluegrass: It's About Time It's About Me
DYEAR=2005
DGENRE=Country
TTITLE0=Rollin' In My Sweet Baby's Arms
TTITLE1=Foggy Mountain Breakdown
TTITLE2=Rocky Top
TTITLE3=Bluegrass Breakdown
TTITLE4=I Wonder Where You Are Tonight
TTITLE5=Blue Moon Of Kentucky
TTITLE6=Earl's Breakdown
TTITLE7=John Hardy
TTITLE8=Salty Dog Blues
TTITLE9=Lonesome Road Blues
TTITLE10=I'll Be All Smiles Tonight
TTITLE11=Pain In My Heart
TTITLE12=Duelin' Banjos
TTITLE13=Jimmy Brown The Newsboy
TTITLE14=Old Joe Clark
TTITLE15=Shuckin' The Corn
EXTD=
EXTT0=
EXTT1=
EXTT2=
EXTT3=
EXTT4=
EXTT5=
EXTT6=
EXTT7=
EXTT8=
EXTT9=
EXTT10=
EXTT11=
EXTT12=
EXTT13=
EXTT14=
EXTT15=
PLAYORDER=
